<svg width="146" height="125" viewBox="0 0 146 125" fill="none" xmlns="http://www.w3.org/2000/svg">
<path d="M11.747 14H128.253C129.494 14 130.5 14.6807 130.5 15.5203V97.4797C130.5 98.3193 129.494 99 128.253 99H11.747C10.5061 99 9.5 98.3193 9.5 97.4797V15.5203C9.5 14.6807 10.5061 14 11.747 14Z" fill="white" stroke="#312E2E" stroke-miterlimit="10" stroke-linecap="round" stroke-linejoin="round"/>
<path d="M16.1973 23.2307C17.0225 23.2307 17.6914 22.5618 17.6914 21.7366C17.6914 20.9114 17.0225 20.2424 16.1973 20.2424C15.3721 20.2424 14.7031 20.9114 14.7031 21.7366C14.7031 22.5618 15.3721 23.2307 16.1973 23.2307Z" fill="#312E2E" stroke="#312E2E" stroke-width="0.215294" stroke-miterlimit="10"/>
<path d="M21.3613 23.2307C22.1865 23.2307 22.8555 22.5618 22.8555 21.7366C22.8555 20.9114 22.1865 20.2424 21.3613 20.2424C20.5361 20.2424 19.8672 20.9114 19.8672 21.7366C19.8672 22.5618 20.5361 23.2307 21.3613 23.2307Z" fill="#312E2E" stroke="#312E2E" stroke-width="0.215294" stroke-miterlimit="10"/>
<path d="M26.5254 23.2307C27.3506 23.2307 28.0195 22.5618 28.0195 21.7366C28.0195 20.9114 27.3506 20.2424 26.5254 20.2424C25.7002 20.2424 25.0312 20.9114 25.0312 21.7366C25.0312 22.5618 25.7002 23.2307 26.5254 23.2307Z" fill="#312E2E" stroke="#312E2E" stroke-width="0.215294" stroke-miterlimit="10"/>
<path d="M11.5 26H128.5" stroke="#312E2E" stroke-width="1.38727" stroke-miterlimit="10"/>
<path d="M58.5 42V50L87.5 50" stroke="#312E2E"/>
<path d="M58.5 68V60L87.5 60" stroke="#312E2E"/>
<path d="M47.5 55H56.5L85.5 55" stroke="#312E2E" stroke-dasharray="5 5"/>
<path d="M58.3153 43.3618C59.3179 43.3618 60.1307 42.6092 60.1307 41.6809C60.1307 40.7526 59.3179 40 58.3153 40C57.3128 40 56.5 40.7526 56.5 41.6809C56.5 42.6092 57.3128 43.3618 58.3153 43.3618Z" fill="white" stroke="#312E2E" stroke-miterlimit="10"/>
<path d="M45.3153 56.3618C46.3179 56.3618 47.1307 55.6092 47.1307 54.6809C47.1307 53.7526 46.3179 53 45.3153 53C44.3128 53 43.5 53.7526 43.5 54.6809C43.5 55.6092 44.3128 56.3618 45.3153 56.3618Z" fill="white" stroke="#312E2E" stroke-miterlimit="10"/>
<path d="M58.3153 71.3618C59.3179 71.3618 60.1307 70.6092 60.1307 69.6809C60.1307 68.7526 59.3179 68 58.3153 68C57.3128 68 56.5 68.7526 56.5 69.6809C56.5 70.6092 57.3128 71.3618 58.3153 71.3618Z" fill="white" stroke="#312E2E" stroke-miterlimit="10"/>
<path d="M107.889 53.498L107.854 53.7787L108.076 53.9534L111.448 56.5978C111.566 56.6963 111.592 56.8578 111.521 56.9805L111.52 56.982L108.321 62.5247C108.32 62.5249 108.32 62.5251 108.32 62.5252C108.248 62.6492 108.096 62.7037 107.958 62.6537L103.98 61.0483L103.713 60.9407L103.486 61.1171C102.697 61.7299 101.831 62.2356 100.896 62.6266L100.634 62.7363L100.594 63.0179L99.9951 67.2493C99.9682 67.3924 99.8413 67.4999 99.6969 67.4999H93.297C93.1526 67.4999 93.0257 67.3924 92.9988 67.2493L92.4 63.0179L92.3602 62.7363L92.0978 62.6266C91.1643 62.2364 90.2975 61.7229 89.5053 61.1152L89.2787 60.9414L89.0138 61.0483L85.0313 62.6557C85.0312 62.6558 85.0311 62.6558 85.031 62.6559C84.9059 62.7057 84.7513 62.6584 84.6736 62.5251C84.6735 62.525 84.6734 62.5248 84.6733 62.5246L81.4757 56.9849C81.4755 56.9845 81.4753 56.9842 81.4751 56.9838C81.3968 56.8449 81.4348 56.686 81.5424 56.6008C81.5425 56.6007 81.5427 56.6005 81.5428 56.6004L84.9176 53.9534L85.1402 53.7787L85.1051 53.498C85.0424 52.9957 84.997 52.4986 84.997 52C84.997 51.5013 85.0424 51.0042 85.1051 50.502L85.1402 50.2212L84.9176 50.0465L81.5462 47.4021C81.4283 47.3037 81.4018 47.1422 81.4732 47.0193L81.474 47.0179L84.6734 41.4752C84.6735 41.4751 84.6736 41.4749 84.6737 41.4747C84.7461 41.3507 84.8984 41.2962 85.0364 41.3462L89.0139 42.9516L89.2806 43.0592L89.5078 42.8828C90.2967 42.27 91.1625 41.7643 92.0979 41.3733L92.3603 41.2636L92.4001 40.982L92.9989 36.7506C93.0258 36.6075 93.1526 36.5 93.297 36.5H99.697C99.8384 36.5 99.9706 36.6055 100.004 36.7568L100.602 40.982L100.642 41.2636L100.904 41.3733C101.838 41.7635 102.704 42.277 103.497 42.8847L103.723 43.0585L103.988 42.9516L107.971 41.3442C107.971 41.3441 107.971 41.344 107.971 41.3439C108.096 41.2943 108.251 41.3416 108.328 41.4747C108.328 41.4749 108.329 41.4751 108.329 41.4753L111.526 47.015C111.527 47.0154 111.527 47.0158 111.527 47.0163C111.605 47.1551 111.567 47.3137 111.46 47.399C111.46 47.3992 111.459 47.3993 111.459 47.3995L108.077 50.0462L107.854 50.2208L107.889 50.502C107.952 51.0042 107.997 51.5013 107.997 52C107.997 52.4986 107.952 52.9957 107.889 53.498ZM90.397 52C90.397 55.3721 93.1248 58.1 96.497 58.1C99.8691 58.1 102.597 55.3722 102.597 52C102.597 48.6279 99.8691 45.9 96.497 45.9C93.1249 45.9 90.397 48.6278 90.397 52Z" fill="white" stroke="#312E2E"/>
<path d="M25.4476 34H15.5V43.9476H25.4476V34Z" fill="#312E2E" stroke="#312E2E" stroke-miterlimit="10" stroke-linecap="round" stroke-linejoin="round"/>
<path d="M25.4476 48.9476H15.5V58.8952H25.4476V48.9476Z" fill="white" stroke="#312E2E" stroke-miterlimit="10" stroke-linecap="round" stroke-linejoin="round"/>
<path d="M25.4476 63.8952H15.5V73.8428H25.4476V63.8952Z" fill="white" stroke="#312E2E" stroke-miterlimit="10" stroke-linecap="round" stroke-linejoin="round"/>
<path d="M25.4476 78.8428H15.5V88.7904H25.4476V78.8428Z" fill="white" stroke="#312E2E" stroke-miterlimit="10" stroke-linecap="round" stroke-linejoin="round"/>
<path d="M71.4069 77.834H31.8441C31.0992 77.834 30.5 78.4332 30.5 79.1781V108.49C30.5 109.235 31.0992 109.834 31.8441 109.834H71.4069C72.1518 109.834 72.751 109.235 72.751 108.49V79.1781C72.751 78.4494 72.1518 77.834 71.4069 77.834Z" fill="#312E2E" stroke="white" stroke-miterlimit="10" stroke-linecap="round" stroke-linejoin="round"/>
<path d="M62.4177 95.8433L62.4313 96.3433H62.4177V95.8433ZM62.8994 89.6223L62.9767 89.1283L62.984 89.1294L62.9913 89.1308L62.8994 89.6223ZM62.4155 89.1324L61.9206 89.2035L61.9202 89.2008L62.4155 89.1324ZM47.6715 85.0517L48.0621 85.3639L48.0587 85.3681L47.6715 85.0517ZM47.0491 85.2379L47.199 84.7609L47.1993 84.761L47.0491 85.2379ZM41.336 89.5849L41.3174 89.0853L41.3267 89.0849H41.336V89.5849ZM41.3361 95.8433V96.3433H41.3266L41.3171 96.3429L41.3361 95.8433ZM62.4042 95.3435C65.6366 95.2557 66.0074 90.7123 62.8074 90.1137L62.9913 89.1308C67.3478 89.9457 66.8846 96.2222 62.4313 96.3431L62.4042 95.3435ZM62.8221 90.1163C62.3538 90.043 61.9881 89.6728 61.9206 89.2035L62.9104 89.0612C62.9154 89.0957 62.9422 89.1229 62.9767 89.1283L62.8221 90.1163ZM61.9202 89.2008C60.9979 82.5267 52.2762 80.0909 48.0621 85.3639L47.2809 84.7396C52.0491 78.7734 61.8695 81.5287 62.9108 89.0639L61.9202 89.2008ZM48.0587 85.3681C47.7796 85.7097 47.3202 85.8475 46.8988 85.7148L47.1993 84.761C47.2299 84.7706 47.2636 84.7607 47.2842 84.7354L48.0587 85.3681ZM46.8991 85.7148C46.5661 85.6102 46.2179 85.5568 45.8641 85.5568V84.5568C46.3187 84.5568 46.768 84.6254 47.199 84.7609L46.8991 85.7148ZM45.8641 85.5568C43.9628 85.5568 42.4152 87.1044 42.4152 89.0057H41.4152C41.4152 86.5521 43.4105 84.5568 45.8641 84.5568V85.5568ZM42.4152 89.0057C42.4152 89.6017 41.932 90.0849 41.336 90.0849V89.0849C41.3797 89.0849 41.4152 89.0494 41.4152 89.0057H42.4152ZM41.3546 90.0846C37.8505 90.215 37.8531 95.2101 41.3552 95.3436L41.3171 96.3429C36.5201 96.16 36.5419 89.2631 41.3174 89.0853L41.3546 90.0846ZM41.3361 95.3433H46.2952V96.3433H41.3361V95.3433ZM46.2952 95.3433H47.647V96.3433H46.2952V95.3433ZM55.0588 95.3433H57.4587V96.3433H55.0588V95.3433ZM57.4587 95.3433H62.4177V96.3433H57.4587V95.3433Z" fill="white"/>
<g clip-path="url(#clip0_1_176)">
<path d="M45.1153 96.5337V99.4252C46.1036 100.404 48.3585 100.946 51.6377 100.946C54.9169 100.946 57.1717 100.404 58.16 99.4252V96.5337C57.086 97.2648 55.1361 97.84 51.6377 97.84C48.1392 97.84 46.1893 97.2648 45.1153 96.5337Z" fill="white"/>
<path d="M45.1153 100.261V103.12C45.1153 104.548 48.3964 105.294 51.6377 105.294C54.879 105.294 58.16 104.548 58.16 103.12V100.261C57.086 100.992 55.1361 101.567 51.6377 101.567C48.1392 101.567 46.1893 100.992 45.1153 100.261Z" fill="white"/>
<path d="M51.6377 89.7647C48.3964 89.7647 45.1153 90.5113 45.1153 91.9388V91.9711C46.1036 92.9495 48.3585 93.4918 51.6377 93.4918C54.9169 93.4918 57.1717 92.9495 58.16 91.9711V91.9388C58.16 90.5113 54.879 89.7647 51.6377 89.7647Z" fill="white"/>
<path d="M45.1153 92.8067V95.6983C46.1036 96.6767 48.3585 97.2189 51.6377 97.2189C54.9169 97.2189 57.1717 96.6767 58.16 95.6983V92.8067C57.086 93.5379 55.1361 94.1131 51.6377 94.1131C48.1392 94.1131 46.1893 93.5379 45.1153 92.8067Z" fill="white"/>
</g>
<g filter="url(#filter0_b_1_176)">
<path d="M129.84 80.7318L105.179 75.1944L80.5 69.6575L87.586 92.227L94.6721 114.797L106.371 99.3859L118.719 110.318L126.097 103.169L113.73 92.237L129.84 80.7318Z" fill="url(#paint0_linear_1_176)" fill-opacity="0.8"/>
</g>
<defs>
<filter id="filter0_b_1_176" x="76.5" y="65.6575" width="57.3405" height="53.1392" filterUnits="userSpaceOnUse" color-interpolation-filters="sRGB">
<feFlood flood-opacity="0" result="BackgroundImageFix"/>
<feGaussianBlur in="BackgroundImage" stdDeviation="2"/>
<feComposite in2="SourceAlpha" operator="in" result="effect1_backgroundBlur_1_176"/>
<feBlend mode="normal" in="SourceGraphic" in2="effect1_backgroundBlur_1_176" result="shape"/>
</filter>
<linearGradient id="paint0_linear_1_176" x1="80.5" y1="69.6575" x2="144.098" y2="117.941" gradientUnits="userSpaceOnUse">
<stop stop-color="#4744FD"/>
<stop offset="1" stop-color="#CA6394"/>
</linearGradient>
<clipPath id="clip0_1_176">
<rect width="15.5294" height="16.9412" fill="white" transform="translate(43.8748 89.0588)"/>
</clipPath>
</defs>
</svg>
